<?xml version="1.0" encoding="UTF-8" standalone="no"?>
<svg
   xmlns:dc="http://purl.org/dc/elements/1.1/"
   xmlns:cc="http://creativecommons.org/ns#"
   xmlns:rdf="http://www.w3.org/1999/02/22-rdf-syntax-ns#"
   xmlns:svg="http://www.w3.org/2000/svg"
   xmlns="http://www.w3.org/2000/svg"
   xmlns:sodipodi="http://sodipodi.sourceforge.net/DTD/sodipodi-0.dtd"
   xmlns:inkscape="http://www.inkscape.org/namespaces/inkscape"
   version="1.1"
   id="Layer_1"
   x="0px"
   y="0px"
   viewBox="0 0 359.20001 359.20001"
   xml:space="preserve"
   sodipodi:docname="Zarus_logo_color.svg"
   inkscape:version="1.0 (6e3e5246a0, 2020-05-07)"
   width="359.20001"
   height="359.20001"><metadata
   id="metadata153"><rdf:RDF><cc:Work
       rdf:about=""><dc:format>image/svg+xml</dc:format><dc:type
         rdf:resource="http://purl.org/dc/dcmitype/StillImage" /><dc:title></dc:title></cc:Work></rdf:RDF></metadata><defs
   id="defs151" /><sodipodi:namedview
   inkscape:document-rotation="0"
   pagecolor="#ffffff"
   bordercolor="#666666"
   borderopacity="1"
   objecttolerance="10"
   gridtolerance="10"
   guidetolerance="10"
   inkscape:pageopacity="0"
   inkscape:pageshadow="2"
   inkscape:window-width="1024"
   inkscape:window-height="703"
   id="namedview149"
   showgrid="false"
   inkscape:zoom="0.45254834"
   inkscape:cx="205.14509"
   inkscape:cy="280.02604"
   inkscape:window-x="164"
   inkscape:window-y="768"
   inkscape:window-maximized="1"
   inkscape:current-layer="Layer_1" />
<style
   type="text/css"
   id="style2">
	.st0{fill:#FFFFFF;}
	.st1{fill:#00A69C;}
	.st2{fill:#231F20;}
	.st3{fill:#F1F1F2;}
</style>



















<g
   id="g846"
   transform="translate(-83.20004,-70.399994)"><path
     id="path28"
     d="m 295.55316,116 c -61.2,0 -121,0 -181,0 0,-15.4 0,-30.3 0,-45.6 98.6,0 197.1,0 297,0 -99.3,91.1 -197.9,181.5 -297.4,272.8 0,-8 0,-14.7 0,-21.5 0,-11.5 0.1,-23 -0.1,-34.5 -0.1,-3.5 1,-5.8 3.6,-8.1 52.2,-47.8 104.4,-95.6 156.5,-143.5 6.7,-6.1 13.4,-12.3 21.4,-19.6 z"
     class="st2"
     style="fill:#3c3c3b;fill-opacity:1" /><path
     id="path30"
     d="m 291.75316,243.7 c 18.3,-16.7 35.6,-32.7 53.6,-49.2 0,16.9 0,32.9 0,49.2 -17.5,0 -34.8,0 -53.6,0 z"
     class="st1" /><path
     id="path32"
     d="m 407.45316,339.2 c -15.3,-14 -30.7,-28.1 -45.9,-42.2 -2.6,-2.5 -5.2,-3.5 -8.8,-3.5 -38.3,0.1 -76.6,0.1 -114.9,0.1 -0.8,0 -1.7,0 -2.7,0 l -55.1,49.5 c 56.1,0.1 191.5,0.1 226.5,0 1.2,0 2.5,-0.2 3.7,-0.2 0.2,-0.4 0.4,-0.7 0.6,-1.1 -1,-0.9 -2.3,-1.6 -3.4,-2.6 z"
     class="st2"
     style="fill:#3c3c3b;fill-opacity:1" /><path
     id="path34"
     d="m 139.45316,422.6 v 6.4 h -25 l 13.8,-22.8 h -11.5 v -6.4 h 24.2 l -13.8,22.8 z"
     class="st2"
     style="fill:#3c3c3b;fill-opacity:1" /><path
     id="path36"
     d="m 268.95316,417 9.2,12 h -9.5 l -7.2,-11.2 h -0.1 V 429 h -7.6 v -29.2 h 11.4 c 2.9,0 5.3,0.8 7.2,2.2 1.9,1.4 2.9,3.7 2.9,6.8 0,2 -0.5,3.8 -1.6,5.4 -1,1.5 -2.6,2.5 -4.7,2.8 z m -7.5,-4.1 h 0.7 c 0.1,0 0.3,0 0.4,0 0.1,0 0.2,0 0.3,0 1.1,-0.1 2.2,-0.3 3.1,-0.8 0.9,-0.5 1.4,-1.4 1.4,-2.8 0,-1.4 -0.5,-2.4 -1.4,-2.9 -0.9,-0.5 -2,-0.8 -3.1,-0.8 -0.1,0 -0.2,0 -0.3,0 -0.1,0 -0.3,0 -0.4,0 h -0.7 z"
     class="st2"
     style="fill:#3c3c3b;fill-opacity:1" /><path
     id="path38"
     d="m 345.45316,399.8 v 16.4 c 0,1.9 -0.1,3.8 -0.4,5.5 -0.3,1.7 -1.2,3.4 -2.6,4.8 -0.9,0.9 -2,1.6 -3.3,2.1 -1.3,0.5 -2.6,0.8 -3.9,0.9 -0.4,0.1 -0.8,0.1 -1.2,0.1 -0.4,0 -0.8,0 -1.2,0 -0.4,0 -0.8,0 -1.2,0 -0.4,0 -0.8,-0.1 -1.2,-0.1 -1.3,-0.2 -2.7,-0.5 -3.9,-0.9 -1.2,-0.4 -2.4,-1.2 -3.3,-2.1 -1.4,-1.4 -2.3,-3 -2.6,-4.8 -0.3,-1.8 -0.4,-3.6 -0.4,-5.5 v -16.5 h 7.6 v 15.4 c 0,0.2 0,0.3 0,0.5 0,0.1 0,0.3 0,0.4 0,1.8 0.3,3.4 0.9,4.8 0.6,1.5 2,2.2 4.2,2.2 2.2,0 3.7,-0.7 4.2,-2.2 0.6,-1.5 0.9,-3.1 0.9,-4.8 0,-0.2 0,-0.3 0,-0.4 0,-0.1 0,-0.3 0,-0.4 v -15.4 z"
     class="st2"
     style="fill:#3c3c3b;fill-opacity:1" /><path
     id="path40"
     d="m 409.15316,401.4 -3,5.9 c -0.7,-0.6 -1.5,-1 -2.3,-1.4 -0.8,-0.4 -1.8,-0.5 -2.7,-0.5 -0.1,0 -0.3,0 -0.4,0 -0.2,0 -0.3,0 -0.5,0.1 -0.6,0.1 -1.1,0.4 -1.6,0.8 -0.5,0.4 -0.7,0.9 -0.7,1.5 0,0.6 0.2,1.1 0.7,1.5 0.5,0.4 1,0.7 1.5,0.9 0.2,0.1 0.4,0.1 0.6,0.2 0.2,0.1 0.4,0.1 0.6,0.2 l 1.9,0.5 c 2,0.6 3.8,1.5 5.1,2.7 1.4,1.2 2.1,3 2.1,5.3 0,0.1 0,0.2 0,0.3 0,0.1 0,0.2 0,0.3 -0.1,1.3 -0.3,2.7 -0.7,3.9 -0.4,1.2 -1.2,2.4 -2.3,3.3 -1,0.9 -2.1,1.5 -3.3,1.9 -1.2,0.4 -2.5,0.7 -3.8,0.8 -0.2,0 -0.4,0 -0.6,0 -0.2,0 -0.4,0 -0.6,0 -1.8,0 -3.6,-0.3 -5.4,-0.9 -1.8,-0.6 -3.4,-1.4 -4.9,-2.4 l 3.3,-6.2 c 1,0.9 2,1.6 3.1,2.2 1.1,0.6 2.3,0.9 3.6,0.9 0.1,0 0.1,0 0.2,0 0.1,0 0.1,0 0.2,0 0.9,-0.1 1.6,-0.3 2.3,-0.8 0.7,-0.5 1,-1.2 1,-2.2 0,-0.7 -0.3,-1.3 -0.9,-1.7 -0.6,-0.4 -1.2,-0.8 -2,-1 -0.3,-0.1 -0.6,-0.2 -0.9,-0.3 -0.3,-0.1 -0.6,-0.2 -0.9,-0.3 -0.1,0 -0.1,0 -0.2,-0.1 -0.1,0 -0.1,0 -0.2,-0.1 -2.3,-0.6 -4.1,-1.5 -5.5,-2.5 -1.4,-1 -2.1,-2.9 -2.1,-5.7 0,-3 1,-5.3 2.8,-7.1 1.8,-1.8 4.3,-2.7 7.2,-2.7 0.6,0 1.2,0 1.8,0.1 0.6,0.1 1.2,0.2 1.9,0.3 1,0.2 1.9,0.5 2.9,0.8 1.1,0.7 1.9,1.1 2.7,1.5 z"
     class="st2"
     style="fill:#3c3c3b;fill-opacity:1" /><path
     id="path42"
     d="m 180.05316,429 c 10.8,-9.9 21.1,-19.4 31.8,-29.2 0,10 0,19.5 0,29.2 -10.3,0 -20.6,0 -31.8,0 z"
     class="st2"
     style="fill:#3c3c3b;fill-opacity:1" /></g>




































</svg>
