<?xml version="1.0" encoding="UTF-8" standalone="no"?>
<svg
   version="1.1"
   id="Layer_1"
   x="0px"
   y="0px"
   viewBox="0 0 525.6001 410"
   xml:space="preserve"
   sodipodi:docname="Zarus_iso_blanco.svg"
   inkscape:version="1.1 (ce6663b3b7, 2021-05-25)"
   width="525.6001"
   height="410"
   xmlns:inkscape="http://www.inkscape.org/namespaces/inkscape"
   xmlns:sodipodi="http://sodipodi.sourceforge.net/DTD/sodipodi-0.dtd"
   xmlns="http://www.w3.org/2000/svg"
   xmlns:svg="http://www.w3.org/2000/svg"
   xmlns:rdf="http://www.w3.org/1999/02/22-rdf-syntax-ns#"
   xmlns:cc="http://creativecommons.org/ns#"
   xmlns:dc="http://purl.org/dc/elements/1.1/"><metadata
   id="metadata153"><rdf:RDF><cc:Work
       rdf:about=""><dc:format>image/svg+xml</dc:format><dc:type
         rdf:resource="http://purl.org/dc/dcmitype/StillImage" /></cc:Work></rdf:RDF></metadata><defs
   id="defs151" /><sodipodi:namedview
   inkscape:document-rotation="0"
   pagecolor="#ffffff"
   bordercolor="#666666"
   borderopacity="1"
   objecttolerance="10"
   gridtolerance="10"
   guidetolerance="10"
   inkscape:pageopacity="0"
   inkscape:pageshadow="2"
   inkscape:window-width="1360"
   inkscape:window-height="739"
   id="namedview149"
   showgrid="false"
   inkscape:zoom="0.22627417"
   inkscape:cx="141.42136"
   inkscape:cy="-28.726213"
   inkscape:window-x="0"
   inkscape:window-y="0"
   inkscape:window-maximized="1"
   inkscape:current-layer="Layer_1"
   inkscape:pagecheckerboard="0" />
<style
   type="text/css"
   id="style2">
	.st0{fill:#FFFFFF;}
	.st1{fill:#00A69C;}
	.st2{fill:#231F20;}
	.st3{fill:#F1F1F2;}
</style>



















<g
   id="g258"
   transform="translate(0,-12)"><path
     style="fill:#ffffff"
     class="st2"
     d="m 295.55316,116 c -61.2,0 -121,0 -181,0 0,-15.4 0,-30.3 0,-45.6 98.6,0 197.1,0 297,0 -99.3,91.1 -197.9,181.5 -297.4,272.8 0,-8 0,-14.7 0,-21.5 0,-11.5 0.1,-23 -0.1,-34.5 -0.1,-3.5 1,-5.8 3.6,-8.1 52.2,-47.8 104.4,-95.6 156.5,-143.5 6.7,-6.1 13.4,-12.3 21.4,-19.6 z"
     id="path28" /><path
     class="st1"
     d="m 291.75316,243.7 c 18.3,-16.7 35.6,-32.7 53.6,-49.2 0,16.9 0,32.9 0,49.2 -17.5,0 -34.8,0 -53.6,0 z"
     id="path30" /><path
     style="fill:#ffffff"
     class="st2"
     d="m 407.45316,339.2 c -15.3,-14 -30.7,-28.1 -45.9,-42.2 -2.6,-2.5 -5.2,-3.5 -8.8,-3.5 -38.3,0.1 -76.6,0.1 -114.9,0.1 -0.8,0 -1.7,0 -2.7,0 l -55.1,49.5 c 56.1,0.1 191.5,0.1 226.5,0 1.2,0 2.5,-0.2 3.7,-0.2 0.2,-0.4 0.4,-0.7 0.6,-1.1 -1,-0.9 -2.3,-1.6 -3.4,-2.6 z"
     id="path32" /></g>




































</svg>
